<svg width="28" height="28" viewBox="0 0 28 28" fill="none" xmlns="http://www.w3.org/2000/svg">
<g clip-path="url(#clip0_7_725)">
<path d="M19.1419 3.5H8.85813C5.90006 3.5 3.5 5.89812 3.5 8.85813V18.2035C3.5 21.1635 5.90006 23.5616 8.85813 23.5616H19.1419C22.1019 23.5616 24.5 21.1635 24.5 18.2035V8.85813C24.5 5.89812 22.1019 3.5 19.1419 3.5ZM17.3867 17.1087C12.8183 21.4029 7.71313 23.3917 5.98115 21.5497C4.2511 19.7076 6.55075 14.7337 11.1172 10.4395C15.6856 6.14527 20.7908 4.15649 22.5209 5.99853C24.2528 7.83864 21.9532 12.8125 17.3867 17.1067V17.1087Z" fill="#141414"/>
</g>
<defs>
<clipPath id="clip0_7_725">
<rect width="21" height="20.0616" fill="white" transform="translate(3.5 3.5)"/>
</clipPath>
</defs>
</svg>
